<svg viewBox="0 0 800 800" xmlns="http://www.w3.org/2000/svg"><path d="M259.90427892147756,581.3383596781189 L247.5547668373743,573.5943008876641 M223.51040151620742,603.2692558611543 L211.1640328488396,595.4429359410062 M259.90427892147756,581.3383596781189 L223.51040151620742,603.2692558611543 M247.5547668373743,573.5943008876641 L211.1640328488396,595.4429359410062 M254.1536324451144,258.4854282205695 L241.28621926710932,251.03993318253157 M254.1536324451144,258.4854282205695 L259.90427892147756,581.3383596781189 M241.28621926710932,251.03993318253157 L247.5547668373743,573.5943008876641 M109.51716322305975,553.4327606305178 L97.00117312097962,545.4553769034778 M223.51040151620742,603.2692558611543 L217.98007838671535,606.421863553827 M217.98007838671535,606.421863553827 L212.44875163120193,609.2647111692872 M212.44875163120193,609.2647111692872 L206.93018161867732,611.789890868539 M206.93018161867732,611.789890868539 L201.43815471144183,613.990296861376 M201.43815471144183,613.990296861376 L195.98648612540808,615.8594644869686 M195.98648612540808,615.8594644869686 L190.58896088656337,617.3917885190017 M190.58896088656337,617.3917885190017 L185.2593177368804,618.5823746971994 M185.2593177368804,618.5823746971994 L180.01121725461468,619.4271942440307 M180.01121725461468,619.4271942440307 L174.85820711934167,619.9229714386615 M174.85820711934167,619.9229714386615 L169.81367739611485,620.0673713355184 M169.81367739611485,620.0673713355184 L164.89083913968938,619.8588548327609 M164.89083913968938,619.8588548327609 L160.10269677076107,619.2967580349609 M160.10269677076107,619.2967580349609 L155.4619791903666,618.3813720522967 M155.4619791903666,618.3813720522967 L150.9811260408693,617.1138165931136 M150.9811260408693,617.1138165931136 L146.67228617213135,615.4961524491862 M146.67228617213135,615.4961524491862 L142.54720860690247,613.5314099230686 M142.54720860690247,613.5314099230686 L138.61725397110376,611.2234695264274 M138.61725397110376,611.2234695264274 L134.89336704547395,608.5771883332948 M134.89336704547395,608.5771883332948 L131.3859945195727,605.5983097078224 M131.3859945195727,605.5983097078224 L128.10511158422094,602.2935307757821 M128.10511158422094,602.2935307757821 L125.06012796140215,598.6704662703635 M125.06012796140215,598.6704662703635 L122.25989909643891,594.7376480891733 M122.25989909643891,594.7376480891733 L119.71266474780475,590.5044664150541 M119.71266474780475,590.5044664150541 L117.42602657890711,585.9812365519435 M117.42602657890711,585.9812365519435 L115.40691919511306,581.1790924486122 M115.40691919511306,581.1790924486122 L113.66159968860876,576.1100689755169 M113.66159968860876,576.1100689755169 L112.19556950450908,570.7869452134194 M112.19556950450908,570.7869452134194 L111.01362336767016,565.2233391975926 M111.01362336767016,565.2233391975926 L110.11974915677092,559.433585752424 M110.11974915677092,559.433585752424 L109.51716322305975,553.4327606305178 M211.1640328488396,595.4429359410062 L205.63396631654484,598.5831639429753 M205.63396631654484,598.5831639429753 L200.10242351020696,601.4138934374937 M200.10242351020696,601.4138934374937 L194.5831652057749,603.9272483752177 M194.5831652057749,603.9272483752177 L189.089979276557,606.1161543212436 M189.089979276557,606.1161543212436 L183.63668328791744,607.9741776708192 M183.63668328791744,607.9741776708192 L178.23706573557888,609.4957436445864 M178.23706573557888,609.4957436445864 L172.9048696934516,610.675987906618 M172.9048696934516,610.675987906618 L167.65376114169038,611.5109108697452 M167.65376114169038,611.5109108697452 L162.49729401931663,611.9972652877261 M162.49729401931663,611.9972652877261 L157.44886576178928,612.1327437057043 M157.44886576178928,612.1327437057043 L152.52169565767912,611.9158335955071 M152.52169565767912,611.9158335955071 L147.72879732679647,611.3458965731497 M147.72879732679647,611.3458965731497 L143.0829099058402,610.4232479783582 M143.0829099058402,610.4232479783582 L138.59648410515,609.1490305277946 M138.59648410515,609.1490305277946 L134.2816808564877,607.5253266669208 M134.2816808564877,607.5253266669208 L130.15026224469818,605.5551867510044 M130.15026224469818,605.5551867510044 L126.21360277260442,603.2425098410051 M126.21360277260442,603.2425098410051 L122.48266210187808,600.5921698640943 M122.48266210187808,600.5921698640943 L118.96790261720321,597.609925250466 M118.96790261720321,597.609925250466 L115.67931616274416,594.3024863602839 M115.67931616274416,594.3024863602839 L112.62632996177484,590.6774791709058 M112.62632996177484,590.6774791709058 L109.81781783825176,586.7434448269 M109.81781783825176,586.7434448269 L107.26203869005082,582.5097806837482 M107.26203869005082,582.5097806837482 L104.96661419152872,577.9868070200355 M104.96661419152872,577.9868070200355 L102.93849966743755,573.1856605891576 M102.93849966743755,573.1856605891576 L101.18397378315171,568.1183767831733 M101.18397378315171,568.1183767831733 L99.70856013352733,562.7977329177495 M99.70856013352733,562.7977329177495 L98.5170763801371,557.2373429599259 M98.5170763801371,557.2373429599259 L97.61353388542489,551.4515352960184 M97.61353388542489,551.4515352960184 L97.00117312097962,545.4553769034778 M400.30126759878186,177.35928471849365 L254.1536324451144,258.4854282205695 M400.30195301345793,176.51625994965514 L400.30126759878186,177.35928471849365 M254.13844714759284,257.6328948853977 L400.30195301345793,176.51625994965514 M253.86454618865974,242.25554072459704 L254.13844714759284,257.6328948853977 M253.86454618865974,242.25554072459704 L400.3143154628996,161.31108351250793 M400.3740412955673,87.85138381018771 L400.3143154628996,161.31108351250793 M400.29881547741877,82.95102928250907 L400.3740412955673,87.85138381018771 M288.84003872198275,14.72344345016296 L294.6406887373256,11.898207755713713 M294.6406887373256,11.898207755713713 L300.4190402853924,9.435418664003691 M300.4190402853924,9.435418664003691 L306.15948223186757,7.340745219468772 M306.15948223186757,7.340745219468772 L311.84661664393684,5.618800979746538 M311.84661664393684,5.618800979746538 L317.46526477405075,4.273128104308682 M317.46526477405075,4.273128104308682 L323.0005443163589,3.306199938770874 M323.0005443163589,3.306199938770874 L328.4378899086671,2.7193987583987678 M328.4378899086671,2.7193987583987678 L333.7630962601833,2.513105396772744 M333.7630962601833,2.513105396772744 L338.96235230631544,2.68658803238759 M338.96235230631544,2.68658803238759 L344.0222928486861,3.238114673519931 M344.0222928486861,3.238114673519931 L348.9300133574565,4.164961148917655 M348.9300133574565,4.164961148917655 L353.6730947347453,5.463372823844054 M353.6730947347453,5.463372823844054 L358.2396672239491,7.128655022703811 M358.2396672239491,7.128655022703811 L362.6184095898052,9.15514675405791 M362.6184095898052,9.15514675405791 L366.79854232431666,11.536319156380898 M366.79854232431666,11.536319156380898 L370.76992085712953,14.264711566690778 M370.76992085712953,14.264711566690778 L374.5230036831657,17.332013755118453 M374.5230036831657,17.332013755118453 L378.0488649625027,20.729163619827546 M378.0488649625027,20.729163619827546 L381.3392506649954,24.446218277574076 M381.3392506649954,24.446218277574076 L384.386533662924,28.472587064023628 M384.386533662924,28.472587064023628 L387.18377982021644,32.796894609491346 M387.18377982021644,32.796894609491346 L389.72471321954254,37.40715119020018 M389.72471321954254,37.40715119020018 L392.003748016576,42.29069826149782 M392.003748016576,42.29069826149782 L394.01598668815797,47.4342908517641 M394.01598668815797,47.4342908517641 L395.7572182435975,52.8241513886573 M395.7572182435975,52.8241513886573 L397.2239054961412,58.44597467211713 M397.2239054961412,58.44597467211713 L398.41322804398254,64.28498124404803 M398.41322804398254,64.28498124404803 L399.3230146748163,70.32595555213288 M399.3230146748163,70.32595555213288 L399.95180927882404,76.55329045113723 M399.95180927882404,76.55329045113723 L400.29881547741877,82.95102928250907 M211.06285769287666,55.34260381048006 L288.84003872198275,14.72344345016296 M98.02562766777879,241.33552901227603 L98.39192707175857,234.21102334762526 M98.39192707175857,234.21102334762526 L99.07154377458158,226.95280442670332 M99.07154377458158,226.95280442670332 L100.06322303791598,219.58090820772213 M100.06322303791598,219.58090820772213 L101.36484581562183,212.11572339563418 M101.36484581562183,212.11572339563418 L102.97331393738261,204.57805756564318 M102.97331393738261,204.57805756564318 L104.88464931950125,196.98894901454867 M104.88464931950125,196.98894901454867 L107.0939300412665,189.36969021684996 M107.0939300412665,189.36969021684996 L109.5953099409005,181.7417297752582 M109.5953099409005,181.7417297752582 L112.3821009731846,174.12655460638925 M112.3821009731846,174.12655460638925 L115.44670235937588,166.54572356074894 M115.44670235937588,166.54572356074894 L118.78068293091548,159.02065230691886 M118.78068293091548,159.02065230691886 L122.37476493953284,151.57270216409526 M122.37476493953284,151.57270216409526 L126.21890921797939,144.22295070896678 M126.21890921797939,144.22295070896678 L130.30230017748204,136.99222577248958 M130.30230017748204,136.99222577248958 L134.6133768801236,129.9010042786739 M134.6133768801236,129.9010042786739 L139.13991560369573,122.96934112230508 M139.13991560369573,122.96934112230508 L143.86905180016527,116.21678950335507 M143.86905180016527,116.21678950335507 L148.78729166022072,109.6623421584477 M148.78729166022072,109.6623421584477 L153.88061753314787,103.32440903690059 M153.88061753314787,103.32440903690059 L159.1344920890191,97.22066780670116 M159.1344920890191,97.22066780670116 L164.53392329334855,91.36808048727733 M164.53392329334855,91.36808048727733 L170.06351545691254,85.78284926140941 M170.06351545691254,85.78284926140941 L175.70754213519393,80.48027867769963 M175.70754213519393,80.48027867769963 L181.44995148667854,75.47482941345038 M181.44995148667854,75.47482941345038 L187.2744698151404,70.77999642294787 M187.2744698151404,70.77999642294787 L193.16464211021358,66.40834810750903 M193.16464211021358,66.40834810750903 L199.1038797530797,62.3713954925106 M199.1038797530797,62.3713954925106 L205.07551286185884,58.67967079223797 M205.07551286185884,58.67967079223797 L211.06285769287666,55.34260381048006 M98.06067881590525,251.64186631489508 L98.02562766777879,241.33552901227603 M109.25786590108953,548.8030804528971 L98.06067881590525,251.64186631489508 M109.51716322305975,553.4327606305178 L109.25786590108953,548.8030804528971 M387.4277842650102,170.22691948092768 L241.28621926710932,251.03993318253157 M387.427101467667,169.38474861744083 L387.4277842650102,170.22691948092768 M241.26966772118,250.18825687762615 L387.427101467667,169.38474861744083 M240.97112460872353,234.8264232484292 L241.26966772118,250.18825687762615 M240.97112460872353,234.8264232484292 L387.414786273288,154.19503239006897 M387.3552900128384,80.81159360659274 L387.414786273288,154.19503239006897 M387.2720416108016,75.91629850836097 L387.3552900128384,80.81159360659274 M275.6116239372997,7.595871321499544 L281.4122316750166,4.78248454020661 M281.4122316750166,4.78248454020661 L287.1911235402917,2.3310902504780984 M287.1911235402917,2.3310902504780984 L292.93268651357,0.2473292658257833 M292.93268651357,0.2473292658257833 L298.6215190020864,-1.4642113263303713 M298.6215190020864,-1.4642113263303713 L304.24243679165653,-2.800014073876241 M304.24243679165653,-2.800014073876241 L309.7805503594697,-3.757628491162052 M309.7805503594697,-3.757628491162052 L315.22128535128877,-4.3356932896323315 M315.22128535128877,-4.3356932896323315 L320.55042588492705,-4.533846817591893 M320.55042588492705,-4.533846817591893 L325.7541485543582,-4.35283813058021 M325.7541485543582,-4.35283813058021 L330.8190742955077,-3.7944145905402706 M330.8190742955077,-3.7944145905402706 L335.73228322013426,-2.861313896500178 M335.73228322013426,-2.861313896500178 L340.48133934673297,-1.5573023239140866 M340.48133934673297,-1.5573023239140866 L345.05435471948965,0.11291565698184058 M345.05435471948965,0.11291565698184058 L349.4399885598434,2.1436711000422974 M349.4399885598434,2.1436711000422974 L353.6274406417669,4.528428876037026 M353.6274406417669,4.528428876037026 L357.6065444945789,7.2597239186762295 M357.6065444945789,7.2597239186762295 L361.3677356572968,10.329243289808119 M361.3677356572968,10.329243289808119 L364.9020644685512,13.727923756875839 M364.9020644685512,13.727923756875839 L368.2012520729255,17.44582308216576 M368.2012520729255,17.44582308216576 L371.2576458766665,21.4723526759351 M371.2576458766665,21.4723526759351 L374.0642854959817,25.79614089906613 M374.0642854959817,25.79614089906613 L376.6148682556956,30.405203157142296 M376.6148682556956,30.405203157142296 L378.9037810078691,35.286887524458564 M378.9037810078691,35.286887524458564 L380.9260985374535,40.42795703237954 M380.9260985374535,40.42795703237954 L382.6775818844957,45.814643424606174 M382.6775818844957,45.814643424606174 L384.1546656371861,51.432652098418714 M384.1546656371861,51.432652098418714 L385.35450106062063,57.26721547747297 M385.35450106062063,57.26721547747297 L386.2748885274459,63.303131031672024 M386.2748885274459,63.303131031672024 L386.9143435822502,69.52480583234762 M386.9143435822502,69.52480583234762 L387.2720416108016,75.91629850836097 M197.8412829344627,48.05206113553271 L275.6116239372997,7.595871321499544 M85.01713946809843,233.66042689942117 L85.37263484029091,226.54439948829543 M85.37263484029091,226.54439948829543 L86.04144616228484,219.29532459267398 M86.04144616228484,219.29532459267398 L87.022347760804,211.93321225980884 M87.022347760804,211.93321225980884 L88.31324984614616,204.47842322061007 M88.31324984614616,204.47842322061007 L89.91108373764189,196.95173478375978 M89.91108373764189,196.95173478375978 L91.81190086008723,189.37415308260165 M91.81190086008723,189.37415308260165 L94.01080882293695,181.76693643683524 M94.01080882293695,181.76693643683524 L96.50199088217067,174.15149747914296 M96.50199088217067,174.15149747914296 L99.2787881707178,166.54928564002324 M99.2787881707178,166.54928564002324 L102.33362885178173,158.98182065848306 M102.33362885178173,158.98182065848306 L105.65811017676776,151.47047787930242 M105.65811017676776,151.47047787930242 L109.24298241334986,144.03657700158354 M109.24298241334986,144.03657700158354 L113.07823369286876,136.70115312083544 M113.07823369286876,136.70115312083544 L117.15307503445729,129.48499070618357 M117.15307503445729,129.48499070618357 L121.45597126107225,122.40852264437774 M121.45597126107225,122.40852264437774 L125.97472348612621,115.49175936662624 M125.97472348612621,115.49175936662624 L130.69649093756482,108.75420934667244 M130.69649093756482,108.75420934667244 L135.6078024110484,102.21482045427513 M135.6078024110484,102.21482045427513 L140.69466169657335,95.8919578524625 M140.69466169657335,95.8919578524625 L145.94255147919839,89.8032547125058 M145.94255147919839,89.8032547125058 L151.33649835144712,83.9656289545502 M151.33649835144712,83.9656289545502 L156.86112379604793,78.39523921190613 M156.86112379604793,78.39523921190613 L162.50071688626167,73.10734732282884 M162.50071688626167,73.10734732282884 L168.23923969894656,68.11637205514751 M168.23923969894656,68.11637205514751 L174.06043070434959,63.43576756320408 M174.06043070434959,63.43576756320408 L179.94784536478264,59.07806258062226 M179.94784536478264,59.07806258062226 L185.88490363750225,55.05472982220721 M185.88490363750225,55.05472982220721 L191.85494245141965,51.37626453491822 M191.85494245141965,51.37626453491822 L197.8412829344627,48.05206113553271 M85.06819408147595,243.95543658173727 L85.01713946809843,233.66042689942117 M96.73448957442326,540.8296633009268 L85.06819408147595,243.95543658173727 M97.00117312097962,545.4553769034778 L96.73448957442326,540.8296633009268 M400.30126759878186,177.35928471849365 L387.4277842650102,170.22691948092768 M109.25786590108953,548.8030804528971 L96.73448957442326,540.8296633009268 M400.30195301345793,176.51625994965514 L387.427101467667,169.38474861744083 M241.26966772118,250.18825687762615 L254.13844714759284,257.6328948853977 M240.97112460872353,234.8264232484292 L253.86454618865974,242.25554072459704 M400.3143154628996,161.31108351250793 L387.414786273288,154.19503239006897 M400.3740412955673,87.85138381018771 L387.3552900128384,80.81159360659274 M400.29881547741877,82.95102928250907 L387.2720416108016,75.91629850836097 M288.84003872198275,14.72344345016296 L275.6116239372997,7.595871321499544 M211.06285769287666,55.34260381048006 L197.8412829344627,48.05206113553271 M98.02562766777879,241.33552901227603 L85.01713946809843,233.66042689942117 M98.06067881590525,251.64186631489508 L85.06819408147595,243.95543658173727" stroke="black"  stroke-width="4"  fill="red"/>
<path d="M546.8121371181114,761.2508376923934 L533.3660168667325,752.8191243565891 M510.41424714934254,785.1366002391323 L496.9653585860982,776.6113968127545 M546.8121371181114,761.2508376923934 L510.41424714934254,785.1366002391323 M533.3660168667325,752.8191243565891 L496.9653585860982,776.6113968127545 M553.6768737132259,431.79911417966844 L539.6144969776715,423.6621751726455 M553.6768737132259,431.79911417966844 L546.8121371181114,761.2508376923934 M539.6144969776715,423.6621751726455 L533.3660168667325,752.8191243565891 M400.7842285765319,739.0792119637849 L387.1127268506315,730.3653335967613 M510.41424714934254,785.1366002391323 L504.88875358807417,788.5837383099054 M504.88875358807417,788.5837383099054 L499.37376411774966,791.715392347438 M499.37376411774966,791.715392347438 L493.8830043424602,794.5228995627563 M493.8830043424602,794.5228995627563 L488.43019888137684,796.9984081078217 M488.43019888137684,796.9984081078217 L483.02908064660494,799.1347131719278 M483.02908064660494,799.1347131719278 L477.6933250355047,800.9254823570543 M477.6933250355047,800.9254823570543 L472.4365401113317,802.3651053829976 M472.4365401113317,802.3651053829976 L467.27222970691537,803.4488534088318 M467.27222970691537,803.4488534088318 L462.21376389590154,804.1727663704662 M462.21376389590154,804.1727663704662 L457.2743281786915,804.5338468175919 M457.2743281786915,804.5338468175919 L452.4669081250279,804.5299136331294 M452.4669081250279,804.5299136331294 L447.8042593063806,804.1596847482588 M447.8042593063806,804.1596847482588 L443.29883679765953,803.4228621063676 M443.29883679765953,803.4228621063676 L438.96278641768583,802.3200040260565 M438.96278641768583,802.3200040260565 L434.80793876601143,800.8526406899548 M434.80793876601143,800.8526406899548 L430.84570122146,799.0233084985277 M430.84570122146,799.0233084985277 L427.0870733664071,796.8354286351725 M427.0870733664071,796.8354286351725 L423.54261498583344,794.2934378452885 M423.54261498583344,794.2934378452885 L420.2223686116046,791.4027005640137 M420.2223686116046,791.4027005640137 L417.13588255697067,788.1695773342888 M417.13588255697067,788.1695773342888 L414.2921198327769,784.6013925929274 M414.2921198327769,784.6013925929274 L411.69946861094826,780.7064344062755 M411.69946861094826,780.7064344062755 L409.3656837952639,776.4938976024375 M409.3656837952639,776.4938976024375 L407.2978619800783,771.9739534915502 M407.2978619800783,771.9739534915502 L405.5024165413129,767.1576429476854 M405.5024165413129,767.1576429476854 L403.9850636862755,762.056961282135 M403.9850636862755,762.056961282135 L402.7507512653351,756.6847019724225 M402.7507512653351,756.6847019724225 L401.80370249891774,751.0545516284903 M401.80370249891774,751.0545516284903 L401.1473219410831,745.1809697345325 M401.1473219410831,745.1809697345325 L400.7842285765319,739.0792119637849 M496.9653585860982,776.6113968127545 L491.43917632451706,780.0444349678687 M491.43917632451706,780.0444349678687 L485.92293622107195,783.1622422024188 M485.92293622107195,783.1622422024188 L480.43036658876565,785.9561918082472 M480.43036658876565,785.9561918082472 L474.9751960770833,788.4184676528473 M474.9751960770833,788.4184676528473 L469.57116263858495,790.541900409014 M469.57116263858495,790.541900409014 L464.23194804756014,792.3201926044321 M464.23194804756014,792.3201926044321 L458.97116777470484,793.7477684045809 M458.97116777470484,793.7477684045809 L453.80233433410046,794.8199327136042 M453.80233433410046,794.8199327136042 L448.73882749888895,795.5327585149746 M448.73882749888895,795.5327585149746 L443.7938437820989,795.8832804264673 M443.7938437820989,795.8832804264673 L438.9803807839748,795.8693484741439 M438.9803807839748,795.8693484741439 L434.31120724222956,795.4897106511767 M434.31120724222956,795.4897106511767 L429.7987926075529,794.7440976371508 M429.7987926075529,794.7440976371508 L425.4552980406861,793.6330952110104 M425.4552980406861,793.6330952110104 L421.29257066587166,792.1582596032304 M421.29257066587166,792.1582596032304 L417.32203551029534,790.3221515631787 M417.32203551029534,790.3221515631787 L413.5547107346992,788.1282150184882 M413.5547107346992,788.1282150184882 L410.00117585252264,785.5809076489409 M410.00117585252264,785.5809076489409 L406.6714940333892,782.685612889413 M406.6714940333892,782.685612889413 L403.57523531344424,779.448708307375 M403.57523531344424,779.448708307375 L400.7213853623666,775.877533193297 M400.7213853623666,775.877533193297 L398.11835598295426,771.9803882872175 M398.11835598295426,771.9803882872175 L395.7739265304692,767.7664788072548 M395.7739265304692,767.7664788072548 L393.69521899728323,763.2459840341928 M393.69521899728323,763.2459840341928 L391.88867290248686,758.4299504051387 M391.88867290248686,758.4299504051387 L390.3600315105262,753.3303762663313 M390.3600315105262,753.3303762663313 L389.11427029566147,747.9600555662335 M389.11427029566147,747.9600555662335 L388.15564092597043,742.3326728181489 M388.15564092597043,742.3326728181489 L387.48757691934094,736.4626827372667 M387.48757691934094,736.4626827372667 L387.1127268506315,730.3653335967613 M699.6639051348461,343.2167775220932 L553.6768737132259,431.79911417966844 M699.6978835276786,342.35471359606225 L699.6639051348461,343.2167775220932 M553.6950349068702,430.92752406630245 L699.6978835276786,342.35471359606225 M554.0226436491546,415.2049594364669 L553.6950349068702,430.92752406630245 M554.0226436491546,415.2049594364669 L700.3107883651221,326.80473885016164 M703.2733454705706,251.6418663148952 L700.3107883651221,326.80473885016164 M703.3937114990915,246.62862239671193 L703.2733454705706,251.6418663148952 M597.098496657796,180.81548312161914 L602.8870679547178,177.7071079442843 M602.8870679547178,177.7071079442843 L608.6391811622693,174.97146992948038 M608.6391811622693,174.97146992948038 L614.3393097402648,172.61491680245086 M614.3393097402648,172.61491680245086 L619.9721830571136,170.64270007105455 M619.9721830571136,170.64270007105455 L625.5227930976662,169.05895907740415 M625.5227930976662,169.05895907740415 L630.976470127692,167.86672149236045 M630.976470127692,167.86672149236045 L636.3189037155712,167.06788045948858 M636.3189037155712,167.06788045948858 L641.5361814358732,166.66328567844712 M641.5361814358732,166.66328567844712 L646.6148265950933,166.65262893248365 M646.6148265950933,166.65262893248365 L651.5418442145558,167.03455836190415 M651.5418442145558,167.03455836190415 L656.3047350052541,167.80668694831544 M656.3047350052541,167.80668694831544 L660.8915208492119,168.96555321715454 M660.8915208492119,168.96555321715454 L665.290803434282,170.50671245379993 M665.290803434282,170.50671245379993 L669.4917641206259,172.42471063178715 M669.4917641206259,172.42471063178715 L673.4841530212175,174.71318637103343 M673.4841530212175,174.71318637103343 L677.2583821900298,177.36480281713398 M677.2583821900298,177.36480281713398 L680.8054907299636,180.37133382943904 M680.8054907299636,180.37133382943904 L684.1171527360982,183.723764331364 M684.1171527360982,183.723764331364 L687.1857367022358,187.41215683993488 M687.1857367022358,187.41215683993488 L690.0042518709447,191.4258924345121 M690.0042518709447,191.4258924345121 L692.5664176358446,195.75352860398675 M692.5664176358446,195.75352860398675 L694.8666222445779,200.38297551104336 M694.8666222445779,200.38297551104336 L696.8999554797842,205.30143944077338 M696.8999554797842,205.30143944077338 L698.6622031005595,210.4955076034779 M698.6622031005595,210.4955076034779 L700.1498423863443,215.9512035900912 M700.1498423863443,215.9512035900912 L701.3600289438168,221.6539931240215 M701.3600289438168,221.6539931240215 L702.2906360312224,227.58883725738661 M702.2906360312224,227.58883725738661 L702.9401865090342,233.74023397862163 M702.9401865090342,233.74023397862163 L703.3079149620253,240.09226132417905 M703.3079149620253,240.09226132417905 L703.3937114990915,246.62862239671193 M519.3321463235552,225.32616818940153 L597.098496657796,180.81548312161914 M401.34411106202174,420.29562775951473 L401.97389673134546,412.98024754777595 M401.97389673134546,412.98024754777595 L402.9163215045234,405.515185720486 M402.9163215045234,405.515185720486 L404.16941900209946,397.9210635416551 M404.16941900209946,397.9210635416551 L405.7303559319412,390.2189047321652 M405.7303559319412,390.2189047321652 L407.5953165630817,382.4302070809241 M407.5953165630817,382.4302070809241 L409.7596069953444,374.57674508284236 M409.7596069953444,374.57674508284236 L412.21759135825135,366.6805956756804 M412.21759135825135,366.6805956756804 L414.9627146824629,358.7640361327043 M414.9627146824629,358.7640361327043 L417.98758821403663,350.8494192231398 M417.98758821403663,350.8494192231398 L421.28391867952735,342.9592094460513 M421.28391867952735,342.9592094460513 L424.8425974602246,335.11575832308574 M424.8425974602246,335.11575832308574 L428.6536815766349,327.34139509009447 M428.6536815766349,327.34139509009447 L432.7064863381052,319.6581871980704 M432.7064863381052,319.6581871980704 L436.9895697364523,312.08797471432484 M436.9895697364523,312.08797471432484 L441.49076728102506,304.6522643774148 M441.49076728102506,304.6522643774148 L446.19727628717243,297.37215254269194 M446.19727628717243,297.37215254269194 L451.0956810701731,290.2682416932129 M451.0956810701731,290.2682416932129 L456.17196720038504,283.360578815014 M456.17196720038504,283.360578815014 L461.41162649655075,276.6686277003311 M461.41162649655075,276.6686277003311 L466.79966755929513,270.2111146756218 M466.79966755929513,270.2111146756218 L472.3206796448457,264.00604253951605 M472.3206796448457,264.00604253951605 L477.95888520806704,258.0706427308069 M477.95888520806704,258.0706427308069 L483.6982174710873,252.42123075287196 M483.6982174710873,252.42123075287196 L489.5223243907616,247.07326072515525 M489.5223243907616,247.07326072515525 L495.4146756495218,242.04119623945195 M495.4146756495218,242.04119623945195 L501.3586016352034,237.3385488583778 M501.3586016352034,237.3385488583778 L507.33734595137406,232.97774206984428 M507.33734595137406,232.97774206984428 L513.3341143785367,228.9701899828337 M513.3341143785367,228.9701899828337 L519.3321463235552,225.32616818940153 M400.9875696997288,430.85518144716445 L401.34411106202174,420.29562775951473 M400.70549644405116,734.3627470840254 L400.9875696997288,430.85518144716445 M400.7842285765319,739.0792119637849 L400.70549644405116,734.3627470840254 M685.6220083617623,335.43706990006206 L539.6144969776715,423.6621751726455 M685.6543618368919,334.5758639739255 L685.6220083617623,335.43706990006206 M539.6310263638513,422.79144145336363 L685.6543618368919,334.5758639739255 M539.9291977071432,407.0843946276536 L539.6310263638513,422.79144145336363 M539.9291977071432,407.0843946276536 L686.237953821279,319.0414314782723 M689.0587575277293,243.95543658173733 L686.237953821279,319.0414314782723 M689.1695615548344,238.94728345788326 L689.0587575277293,243.95543658173733 M582.6117527533684,173.009913537587 L588.4014526886469,169.91514639093208 M588.4014526886469,169.91514639093208 L594.1553849831917,167.19264528811382 M594.1553849831917,167.19264528811382 L599.8580173691203,164.84872516219292 M599.8580173691203,164.84872516219292 L605.4940714224424,162.88860663036655 M605.4940714224424,162.88860663036655 L611.0485292378567,161.31640004681648 M611.0485292378567,161.31640004681648 L616.506709180085,160.13510610060186 M616.506709180085,160.13510610060186 L621.8542868836619,159.3465929876886 M621.8542868836619,159.3465929876886 L627.0773341786246,158.95168743200608 M627.0773341786246,158.95168743200608 L632.1623566459314,158.9500603629639 M632.1623566459314,158.9500603629639 L637.0963398832662,159.34034111216806 M637.0963398832662,159.34034111216806 L641.8667635227557,160.12012587467672 M641.8667635227557,160.12012587467672 L646.4616266803314,161.28593845805273 M646.4616266803314,161.28593845805273 L650.8695068551374,162.83332146812265 M650.8695068551374,162.83332146812265 L655.0795597628105,164.75681022507084 M655.0795597628105,164.75681022507084 L659.0815086175407,167.0500345587976 M659.0815086175407,167.0500345587976 L662.8657373298117,169.70565088747264 M662.8657373298117,169.70565088747264 L666.4232557590901,172.71542821952386 M666.4232557590901,172.71542821952386 L669.7457078856874,176.07034838265466 M669.7457078856874,176.07034838265466 L672.8254310622829,179.76047276476675 M672.8254310622829,179.76047276476675 L675.6554027868938,183.77518291342034 M675.6554027868938,183.77518291342034 L678.2293099481699,188.1030386261951 M678.2293099481699,188.1030386261951 L680.5415078433211,192.73195394047423 M680.5415078433211,192.73195394047423 L682.5870528203495,197.64914067866812 M682.5870528203495,197.64914067866812 L684.3616969042068,202.84119313995598 M684.3616969042068,202.84119313995598 L685.8618834695337,208.29414348018037 M685.8618834695337,208.29414348018037 L687.0847340676771,213.99346742539552 M687.0847340676771,213.99346742539552 L688.0280879319521,219.9241374805465 M688.0280879319521,219.9241374805465 L688.6904339429591,226.0706643713641 M688.6904339429591,226.0706643713641 L689.0709729399925,232.41714022708186 M689.0709729399925,232.41714022708186 L689.1695615548344,238.94728345788326 M504.8375795498763,217.33368170051864 L582.6117527533684,173.009913537587 M387.0815776391783,411.8806298959645 L387.69847663763693,404.5739321854205 M387.69847663763693,404.5739321854205 L388.62807709018836,397.1183228018845 M388.62807709018836,397.1183228018845 L389.8684475445204,389.53439630166514 M389.8684475445204,389.53439630166514 L391.4167896782062,381.84314729142517 M391.4167896782062,381.84314729142517 L393.26932279441894,374.0660417752751 M393.26932279441894,374.0660417752751 L395.4213878509915,366.2248202255137 M395.4213878509915,366.2248202255137 L397.8673836453765,358.3415232087675 M397.8673836453765,358.3415232087675 L400.60078952557757,350.438389467316 M400.60078952557757,350.438389467316 L403.61425056570744,342.5377314120023 M403.61425056570744,342.5377314120023 L406.8995068172392,334.6619712303471 M406.8995068172392,334.6619712303471 L410.4474821548235,326.83341662853684 M410.4474821548235,326.83341662853684 L414.24826539681476,319.0743514398712 M414.24826539681476,319.0743514398712 L418.2912025948567,311.4067965990866 M418.2912025948567,311.4067965990866 L422.5648814550969,303.8525445267317 M422.5648814550969,303.8525445267317 L427.057165991271,296.4330534089812 M427.057165991271,296.4330534089812 L431.7552807364276,289.1693704274408 M431.7552807364276,289.1693704274408 L436.6458357803454,282.082048450169 M436.6458357803454,282.082048450169 L441.71484089414685,275.1910845417488 M441.71484089414685,275.1910845417488 L446.94781055526516,268.5158925284052 M446.94781055526516,268.5158925284052 L452.329774169581,262.0751489466238 M452.329774169581,262.0751489466238 L457.84534000645084,255.8868071155831 M457.84534000645084,255.8868071155831 L463.47874767463594,249.96804948042916 M463.47874767463594,249.96804948042916 L469.21394547031076,244.33514335683884 M469.21394547031076,244.33514335683884 L475.0345944148945,239.0034954499016 M475.0345944148945,239.0034954499016 L480.92417508843175,233.98752305742045 M480.92417508843175,233.98752305742045 L486.8660266917486,229.3006926061014 M486.8660266917486,229.3006926061014 L492.8433993276968,224.9553838507607 M492.8433993276968,224.9553838507607 L498.83950313543113,220.9629685722714 M498.83950313543113,220.9629685722714 L504.8375795498763,217.33368170051864 M386.7442418915761,422.4287456574357 L387.0815776391783,411.8806298959645 M387.02514720668546,725.65270528628 L386.7442418915761,422.4287456574357 M387.1127268506315,730.3653335967613 L387.02514720668546,725.65270528628 M699.6639051348461,343.2167775220932 L685.6220083617623,335.43706990006206 M400.70549644405116,734.3627470840254 L387.02514720668546,725.65270528628 M699.6978835276786,342.35471359606225 L685.6543618368919,334.5758639739255 M539.6310263638513,422.79144145336363 L553.6950349068702,430.92752406630245 M539.9291977071432,407.0843946276536 L554.0226436491546,415.2049594364669 M700.3107883651221,326.80473885016164 L686.237953821279,319.0414314782723 M703.2733454705706,251.6418663148952 L689.0587575277293,243.95543658173733 M703.3937114990915,246.62862239671193 L689.1695615548344,238.94728345788326 M597.098496657796,180.81548312161914 L582.6117527533684,173.009913537587 M519.3321463235552,225.32616818940153 L504.8375795498763,217.33368170051864 M401.34411106202174,420.29562775951473 L387.0815776391783,411.8806298959645 M400.9875696997288,430.85518144716445 L386.7442418915761,422.4287456574357" stroke="black"  stroke-width="4"  fill="red"/>
<path d="M329.5525158597453,168.98935274784617 L329.42939008928414,153.80049521535517 M241.87507905600071,217.04404636878195 L241.58031564359118,201.7520018501125 M329.5525158597453,168.98935274784617 L241.87507905600071,217.04404636878195 M329.42939008928414,153.80049521535517 L241.58031564359118,201.7520018501125 M238.8238806358721,248.7067112686064 L238.52067062402614,233.3479731415838 M241.87507905600071,217.04404636878195 L239.2136424367551,218.6436324985981 M239.2136424367551,218.6436324985981 L236.82477434157266,220.374623406605 M236.82477434157266,220.374623406605 L234.7298310201723,222.22199344714545 M234.7298310201723,222.22199344714545 L232.94767786117748,224.16965477356376 M232.94767786117748,224.16965477356376 L231.4944970700405,226.2006031659102 M231.4944970700405,226.2006031659102 L230.38364821004083,228.29704609085576 M230.38364821004083,228.29704609085576 L229.62551866715458,230.44056039806776 M229.62551866715458,230.44056039806776 L229.2274162477294,232.61223965748644 M229.2274162477294,232.61223965748644 L229.1935090590224,234.79287778618271 M229.1935090590224,234.79287778618271 L229.52469635732274,236.9630952208276 M229.52469635732274,236.9630952208276 L230.21867442241592,239.1035679206252 M230.21867442241592,239.1035679206252 L231.26987176902418,241.19516087063852 M231.26987176902418,241.19516087063852 L232.66948170783454,243.21910937017805 M232.66948170783454,243.21910937017805 L234.40553267489835,245.15719595723584 M234.40553267489835,245.15719595723584 L236.4629986591972,246.99193416077094 M236.4629986591972,246.99193416077094 L238.8238806358721,248.7067112686064 M241.58031564359118,201.7520018501125 L238.9135898720862,203.34819396922575 M238.9135898720862,203.34819396922575 L236.5199466884139,205.07551500923108 M236.5199466884139,205.07551500923108 L234.420785294516,206.9189718386063 M234.420785294516,206.9189718386063 L232.63500953282775,208.86251130329998 M232.63500953282775,208.86251130329998 L231.17883515741894,210.88916571840167 M231.17883515741894,210.88916571840167 L230.06565006329654,212.9811806326178 M230.06565006329654,212.9811806326178 L229.30586440952567,215.12017217035668 M229.30586440952567,215.12017217035668 L228.9068029511536,217.28727404125272 M228.9068029511536,217.28727404125272 L228.8726447378083,219.46332076802838 M228.8726447378083,219.46332076802838 L229.20429364679592,221.62897358675644 M229.20429364679592,221.62897358675644 L229.89944431217364,223.7649489671096 M229.89944431217364,223.7649489671096 L230.95251714485215,225.85215184021138 M230.95251714485215,225.85215184021138 L232.35469089027438,227.87185651686218 M232.35469089027438,227.87185651686218 L234.09397303295088,229.80588325669055 M234.09397303295088,229.80588325669055 L236.15531038319466,231.63678165602835 M236.15531038319466,231.63678165602835 L238.52067062402614,233.3479731415838 M240.55620897822766,249.77551827214052 L240.25630256675365,234.41454678170356 M238.8238806358721,248.7067112686064 L240.55620897822766,249.77551827214052 M238.52067062402614,233.3479731415838 L240.25630256675365,234.41454678170356 M554.4780558772602,431.3805046858229 L554.8073070277226,415.6570780911225 M240.55620897822766,249.77551827214052 L554.4780558772602,431.3805046858229 M240.25630256675365,234.41454678170356 L554.8073070277226,415.6570780911225 M558.6417594289076,433.5099521112855 L558.9797264895819,417.7824762697887 M554.4780558772602,431.3805046858229 L558.6417594289076,433.5099521112855 M554.8073070277226,415.6570780911225 L558.9797264895819,417.7824762697887 M615.6665077758842,431.3805046858229 L616.1211879360465,415.6570780911225 M558.6417594289076,433.5099521112855 L562.1149926087187,434.9289876850807 M562.1149926087187,434.9289876850807 L565.7966119550917,436.14760182131494 M565.7966119550917,436.14760182131494 L569.6520452508273,437.1540977719438 M569.6520452508273,437.1540977719438 L573.6450471827393,437.938826418801 M573.6450471827393,437.938826418801 L577.7379553388926,438.4942310804726 M577.7379553388926,438.4942310804726 L581.8921526350275,438.8149800782878 M581.8921526350275,438.8149800782878 L586.068387589432,438.89798527314593 M586.068387589432,438.89798527314593 L590.2271595625764,438.74243559251664 M590.2271595625764,438.74243559251664 L594.3291794468018,438.34983832732877 M594.3291794468018,438.34983832732877 L598.3356934357726,437.7239683828117 M598.3356934357726,437.7239683828117 L602.2088970435984,436.8708431187736 M602.2088970435984,436.8708431187736 L605.9123376495188,435.7986701129737 M605.9123376495188,435.7986701129737 L609.4112150280587,434.5177370839925 M609.4112150280587,434.5177370839925 L612.6727538410307,433.0403091036253 M612.6727538410307,433.0403091036253 L615.6665077758842,431.3805046858229 M558.9797264895819,417.7824762697887 L562.4602062264455,419.19881606362367 M562.4602062264455,419.19881606362367 L566.1494871524148,420.4151168156563 M566.1494871524148,420.4151168156563 L570.0129242705882,421.41970321101667 M570.0129242705882,421.41970321101667 L574.0141959587679,422.202943767858 M574.0141959587679,422.202943767858 L578.1155605452816,422.7572955912743 M578.1155605452816,422.7572955912743 L582.2783197555775,423.0774367139199 M582.2783197555775,423.0774367139199 L586.4631397125411,423.1602846166901 M586.4631397125411,423.1602846166901 L590.6304370410612,423.005029703332 M590.6304370410612,423.005029703332 L594.7408405806814,422.6131765219987 M594.7408405806814,422.6131765219987 L598.7555158868297,421.9884931068042 M598.7555158868297,421.9884931068042 L602.6365801657887,421.1369858521928 M602.6365801657887,421.1369858521928 L606.3475057024743,420.0668473541017 M606.3475057024743,420.0668473541017 L609.8534210491177,418.78834651361495 M609.8534210491177,418.78834651361495 L613.121484313134,417.3137259108209 M613.121484313134,417.3137259108209 L616.1211879360465,415.6570780911225 M703.2300020922967,377.7480869020311 L703.8556272337505,362.1281798749361 M615.6665077758842,431.3805046858229 L703.2300020922967,377.7480869020311 M616.1211879360465,415.6570780911225 L703.8556272337505,362.1281798749361 M702.387850236066,343.91012825667286 L703.0063930512879,328.3570532213701 M703.2300020922967,377.7480869020311 L705.7986157780745,376.0108008158198 M705.7986157780745,376.0108008158198 L708.062033672845,374.1341775334637 M708.062033672845,374.1341775334637 L710.0003698844637,372.135262642263 M710.0003698844637,372.135262642263 L711.5967774172407,370.0321375715287 M711.5967774172407,370.0321375715287 L712.8375260794701,367.84377666926986 M712.8375260794701,367.84377666926986 L713.7121185401782,365.5898659733299 M713.7121185401782,365.5898659733299 L714.2133892337899,363.2906044577476 M714.2133892337899,363.2906044577476 L714.3375443716841,360.9665283054043 M714.3375443716841,360.9665283054043 L714.084128928298,358.6383116685938 M714.084128928298,358.6383116685938 L713.4560996092532,356.32661750277583 M713.4560996092532,356.32661750277583 L712.4596392170395,354.0518718501326 M712.4596392170395,354.0518718501326 L711.1041948399827,351.83410160387336 M711.1041948399827,351.83410160387336 L709.4023348752826,349.6927754190767 M709.4023348752826,349.6927754190767 L707.3696408646613,347.64661439612445 M707.3696408646613,347.64661439612445 L705.0244595705053,345.71346509782893 M705.0244595705053,345.71346509782893 L702.387850236066,343.91012825667286 M703.8556272337505,362.1281798749361 L706.4291560472632,360.3942964119006 M706.4291560472632,360.3942964119006 L708.6968452790402,358.5213521371375 M708.6968452790402,358.5213521371375 L710.6387720551138,356.5263599747307 M710.6387720551138,356.5263599747307 L712.2380589766367,354.427366565441 M712.2380589766367,354.427366565441 L713.4809521294428,352.2433095930973 M713.4809521294428,352.2433095930973 L714.3569373043936,349.99383688478764 M714.3569373043936,349.99383688478764 L714.858839020168,347.699108026114 M714.858839020168,347.699108026114 L714.9828605319017,345.37961896351254 M714.9828605319017,345.37961896351254 L714.7285506595974,343.0560031474432 M714.7285506595974,343.0560031474432 L714.098876818508,340.7488826567444 M714.098876818508,340.7488826567444 L713.1000389144131,338.47864293101014 M713.1000389144131,338.47864293101014 L711.7415075258752,336.2652708652106 M711.7415075258752,336.2652708652106 L710.0358805611552,334.12819605083627 M710.0358805611552,334.12819605083627 L707.9987747994217,332.0861018554353 M707.9987747994217,332.0861018554353 L705.6485774102641,330.15679871714093 M705.6485774102641,330.15679871714093 L703.0063930512879,328.3570532213701 M700.4797264399003,342.7877843439999 L701.0942665158761,327.2369461417711 M702.387850236066,343.91012825667286 L700.4797264399003,342.7877843439999 M703.0063930512879,328.3570532213701 L701.0942665158761,327.2369461417711 M386.7132747785255,168.98935274784617 L386.6995941373631,153.80049521535517 M700.4797264399003,342.7877843439999 L386.7132747785255,168.98935274784617 M701.0942665158761,327.2369461417711 L386.6995941373631,153.80049521535517 M382.9112919985133,167.13293702882785 L382.89034220837044,151.94811328325807 M386.7132747785255,168.98935274784617 L382.9112919985133,167.13293702882785 M386.6995941373631,153.80049521535517 L382.89034220837044,151.94811328325807 M382.9112919985133,167.13293702882785 L379.7305694244928,165.897970567721 M379.7305694244928,165.897970567721 L376.35115158428727,164.83878069838966 M376.35115158428727,164.83878069838966 L372.8040652251711,163.96490462255582 M372.8040652251711,163.96490462255582 L369.1217649762906,163.28416456014543 M369.1217649762906,163.28416456014543 L365.33790283875487,162.80267385228709 M365.33790283875487,162.80267385228709 L361.4869824314186,162.52472642759702 M361.4869824314186,162.52472642759702 L357.6040916586379,162.45280991872576 M357.6040916586379,162.45280991872576 L353.72461576398985,162.58757975533462 M353.72461576398985,162.58757975533462 L349.8838753257614,162.92782418479493 M349.8838753257614,162.92782418479493 L346.11689403253047,163.47049830890728 M346.11689403253047,163.47049830890728 L342.4580345272966,164.21075509048512 M342.4580345272966,164.21075509048512 L338.94074136883114,165.14193739134035 M338.94074136883114,165.14193739134035 L335.5972136627533,166.2556997935154 M335.5972136627533,166.2556997935154 L332.458161966166,167.54203200311983 M332.458161966166,167.54203200311983 L329.5525158597453,168.98935274784617 M382.89034220837044,151.94811328325807 L379.7035415668177,150.71583222698135 M379.7035415668177,150.71583222698135 L376.31766812390936,149.6589467872034 M376.31766812390936,149.6589467872034 L372.76380725682816,148.78697282910002 M372.76380725682816,148.78697282910002 L369.0744747506522,148.1077150388955 M369.0744747506522,148.1077150388955 L365.28338588560865,147.6272730363751 M365.28338588560865,147.6272730363751 L361.4251090681017,147.34993110019573 M361.4251090681017,147.34993110019573 L357.53479803772063,147.27817126918512 M357.53479803772063,147.27817126918512 L353.64790442674786,147.4126474995351 M353.64790442674786,147.4126474995351 L349.7998151201145,147.75215076375034 M349.7998151201145,147.75215076375034 L346.02561964199697,148.2936430094068 M346.02561964199697,148.2936430094068 L342.3597453564044,149.03228808869565 M342.3597453564044,149.03228808869565 L338.83569998665877,149.96144379881423 M338.83569998665877,149.96144379881423 L335.48574366082056,151.0727834181862 M335.48574366082056,151.0727834181862 L332.3406453867081,152.35631903544748 M332.3406453867081,152.35631903544748 L329.42939008928414,153.80049521535517" stroke="black"  stroke-width="4"  fill="red"/></svg>